<?xml version="1.0" encoding="utf-8"?>
<!-- Generator: Adobe Illustrator 21.0.0, SVG Export Plug-In . SVG Version: 6.00 Build 0)  -->
<svg version="1.1" id="Layer_1" xmlns="http://www.w3.org/2000/svg" xmlns:xlink="http://www.w3.org/1999/xlink" x="0px" y="0px"
	 viewBox="0 0 21 20" style="enable-background:new 0 0 21 20;" xml:space="preserve">
<style type="text/css">
	.st0{filter:url(#Adobe_OpacityMaskFilter);}
	.st1{fill:#FFFFFF;}
	.st2{mask:url(#mask-2_1_);}
</style>
<g id="Group-3" transform="translate(0.000000, 6.000000)">
	<g id="Rectangle-2">
		<path d="M20.1,14h-20V0h20V14z M2.1,12h16V2h-16V12z"/>
	</g>
</g>
<g id="Path" transform="translate(4.000000, 0.000000)">
	<g id="Mask">
	</g>
	<defs>
		<filter id="Adobe_OpacityMaskFilter" filterUnits="userSpaceOnUse" x="2" y="0" width="8" height="8">
			<feColorMatrix  type="matrix" values="1 0 0 0 0  0 1 0 0 0  0 0 1 0 0  0 0 0 1 0"/>
		</filter>
	</defs>
	<mask maskUnits="userSpaceOnUse" x="2" y="0" width="8" height="8" id="mask-2_1_">
		<g class="st0">
			<rect id="path-1_1_" class="st1" width="12" height="5"/>
		</g>
	</mask>
	<g class="st2">
		<path d="M6,8C3.8,8,2,6.2,2,4s1.8-4,4-4c2.2,0,4,1.8,4,4S8.2,8,6,8z M6,2C4.9,2,4,2.9,4,4s0.9,2,2,2c1.1,0,2-0.9,2-2S7.1,2,6,2z"
			/>
	</g>
</g>
</svg>
