<svg id="Layer_1" data-name="Layer 1" xmlns="http://www.w3.org/2000/svg" viewBox="0 0 155.74 42.9"><title>logo-mini-center</title><path id="Fill-35" d="M9.39,16.66H0v-.11l2.77-1.17C2.9,13.76,3,11.52,3,8.68S2.9,3.64,2.77,2L0,.83V.72H13V5.3h-.2c-.26-2.5-1.28-3.92-4.14-3.92H4.91V8.6H7.66L9.17,5h.18v7.88H9.17L7.66,9.26H4.91c0,2.59.09,4.6.2,6.13l4.27,1.15Z" transform="translate(0 -0.49)" style="fill:#fff"/><path id="Fill-36" d="M25.71,16.66H16.32v-.11l2.77-1.17c.13-1.61.22-3.85.22-6.69s-.09-5-.22-6.69L16.32.83V.72h8.35c3.39,0,5.69,1.33,5.69,3.9,0,2.72-2.3,4.16-5.69,4.16h-.84L30.09,15A4.63,4.63,0,0,0,33,16.54v.11H28.81L21.23,8.48c0,2.94.09,5.23.2,6.91l4.27,1.15ZM21.23,1.38V8.11h3.43a3.37,3.37,0,0,0,3.61-3.5c0-1.86-1.37-3.23-3.61-3.23Z" transform="translate(0 -0.49)" style="fill:#fff"/><path id="Fill-37" d="M41.16,16.66h-7v-.09l2.19-1.2,5.53-12.2-.22-.44C41,1.45,40.21.83,39.28.83V.72h3.26v0L46.72,9c1.08,2,2.48,4.47,3.52,6.38l2.08,1.17v.09H45.06v-.09L48,15.46c-.53-1.26-1.17-2.57-1.81-3.85H39.06l-1.42,3.81,3.52,1.15Zm.91-13.08-2.5,6.71h5.91c-.07-.13-.13-.24-.2-.38Z" transform="translate(0 -0.49)" style="fill:#fff"/><path id="Fill-38" d="M70.17,17.1,58.35,3.81V8.69c0,2.83.09,5,.22,6.69l2.77,1.17v.11H54.76v-.11l2.72-1.15c.11-1.64.2-3.85.2-6.71V3.08C56.38,1.64,55.38.83,54.32.83V.71h3.85v0L69.71,13.82V8.69c0-2.84-.09-5-.22-6.69L66.72.83V.71h6.58V.83L70.57,2c-.11,1.64-.2,3.85-.2,6.71V17.1Z" transform="translate(0 -0.49)" style="fill:#fff"/><path id="Fill-39" d="M90.26,10.48l.15,0c-.58,3.78-3,6.38-7,6.38-4.18,0-7.33-3.3-7.33-8.3S79.19.49,83.5.49a7.4,7.4,0,0,1,5.2,1.9v5h-.18c0-3.43-2.39-5-5.36-5a5.88,5.88,0,0,0-6.22,6.22c0,3.85,2.81,6.31,6.55,6.31s6-1.62,6.75-4.41" transform="translate(0 -0.49)" style="fill:#fff"/><path id="Fill-40" d="M93.4,16.55l2.77-1.17c.13-1.62.22-3.85.22-6.69s-.09-5-.22-6.68L93.4.83V.71h7.84V.83L98.52,2c-.11,1.64-.2,3.85-.2,6.71s.09,5.09.2,6.71l2.72,1.15v.11H93.4Z" transform="translate(0 -0.49)" style="fill:#fff"/><path id="Fill-41" d="M105.45,15V10.46h.18c0,3.19,2.39,4.67,5.36,4.67s5-1,5-2.81c0-4.89-10.38.24-10.38-7.22,0-2.81,2.46-4.6,5.18-4.6a7.08,7.08,0,0,1,4.89,1.66V6.67h-.18c0-3.43-2.66-4.43-4.94-4.43s-4.19,1-4.19,2.7c0,4.78,10.43,0,10.43,7,0,3.23-2.46,4.91-5.93,4.91a7.73,7.73,0,0,1-5.4-1.9" transform="translate(0 -0.49)" style="fill:#fff"/><path id="Fill-42" d="M135.3,10.48l.15,0c-.57,3.78-3,6.38-7,6.38-4.18,0-7.33-3.3-7.33-8.3S124.23.49,128.54.49a7.4,7.4,0,0,1,5.2,1.9v5h-.18c0-3.43-2.39-5-5.36-5A5.88,5.88,0,0,0,122,8.57c0,3.85,2.81,6.31,6.55,6.31s6-1.62,6.75-4.41" transform="translate(0 -0.49)" style="fill:#fff"/><path id="Fill-43" d="M144.58,16.66h-7v-.09l2.19-1.2,5.54-12.2-.22-.44c-.64-1.28-1.44-1.9-2.37-1.9V.72H146v0L150.14,9c1.08,2,2.48,4.47,3.52,6.38l2.08,1.17v.09h-7.26v-.09l2.9-1.11c-.53-1.26-1.18-2.57-1.82-3.85h-7.08l-1.42,3.81,3.52,1.15Zm.91-13.08L143,10.28h5.91l-.2-.38Z" transform="translate(0 -0.49)" style="fill:#fff"/><path id="Fill-44" d="M33.1,30.82,26.81,43.4H26.7L20.48,30.64V35c0,2.83.09,5,.22,6.69l2.77,1.17V43H16.89v-.11l2.73-1.15c.11-1.64.2-3.85.2-6.71V29.34c-.93-1.6-1.93-2.22-3.37-2.22V27H21l6.46,13.9L33.77,27h4.4v.11a3.31,3.31,0,0,0-3.08,1.57L35,35c0,2.86.09,5.09.2,6.71l2.72,1.15V43H30.11v-.11l2.77-1.17c.13-1.62.22-3.85.22-6.69Z" transform="translate(0 -0.49)" style="fill:#fff"/><path id="Fill-45" d="M47,43h-7v-.09l2.19-1.19,5.53-12.2L47.45,29c-.64-1.28-1.44-1.9-2.37-1.9V27h3.25v0l4.19,8.28c1.08,2,2.48,4.47,3.52,6.38l2.08,1.17V43H50.86v-.09l2.9-1.11c-.53-1.26-1.17-2.57-1.82-3.85H44.86l-1.42,3.81L47,42.87Zm.91-13.09-2.5,6.71h5.91c-.06-.13-.13-.24-.2-.38Z" transform="translate(0 -0.49)" style="fill:#fff"/><path id="Fill-46" d="M75.53,43.4,63.71,30.11V35c0,2.83.09,5,.22,6.69l2.77,1.17V43H60.12v-.11l2.72-1.15c.11-1.64.2-3.85.2-6.71v-5.6c-1.31-1.44-2.3-2.26-3.36-2.26V27h3.85v0L75.07,40.12V35c0-2.83-.09-5-.22-6.68l-2.77-1.17V27h6.57v.11l-2.72,1.15c-.11,1.64-.2,3.85-.2,6.71V43.4Z" transform="translate(0 -0.49)" style="fill:#fff"/><path id="Fill-47" d="M95.62,36.78l.15,0c-.57,3.79-3,6.38-7,6.38-4.18,0-7.33-3.3-7.33-8.3s3.12-8.08,7.44-8.08a7.4,7.4,0,0,1,5.2,1.9v5h-.18c0-3.43-2.39-5-5.36-5a5.88,5.88,0,0,0-6.22,6.22c0,3.85,2.81,6.31,6.55,6.31s6-1.62,6.75-4.4" transform="translate(0 -0.49)" style="fill:#fff"/><path id="Fill-48" d="M98.76,42.84l2.77-1.17c.13-1.62.22-3.85.22-6.69s-.09-5-.22-6.69l-2.77-1.17V27h7.84v.11l-2.72,1.15c-.11,1.64-.2,3.85-.2,6.71s.09,5.09.2,6.71l2.72,1.15V43H98.76Z" transform="translate(0 -0.49)" style="fill:#fff"/><path id="Fill-49" d="M124.89,43.4,113.07,30.11V35c0,2.83.09,5,.22,6.69l2.77,1.17V43h-6.58v-.11l2.72-1.15c.11-1.64.2-3.85.2-6.71v-5.6c-1.31-1.44-2.3-2.26-3.36-2.26V27h3.85v0l11.53,13.08V35c0-2.83-.09-5-.22-6.68l-2.77-1.17V27H128v.11l-2.72,1.15c-.11,1.64-.2,3.85-.2,6.71V43.4Z" transform="translate(0 -0.49)" style="fill:#fff"/><path id="Fill-50" d="M131.45,42.84l2.77-1.17c.13-1.62.22-3.85.22-6.69s-.09-5-.22-6.69l-2.77-1.17V27h7.84v.11l-2.72,1.15c-.11,1.64-.2,3.85-.2,6.71s.09,5.09.2,6.71l2.72,1.15V43h-7.84Z" transform="translate(0 -0.49)" style="fill:#fff"/></svg>