<?xml version="1.0" encoding="utf-8"?>
<!-- Generator: Adobe Illustrator 21.0.0, SVG Export Plug-In . SVG Version: 6.00 Build 0)  -->
<svg version="1.1" id="Layer_1" xmlns="http://www.w3.org/2000/svg" xmlns:xlink="http://www.w3.org/1999/xlink" x="0px" y="0px"
	 viewBox="0 0 41 44" style="enable-background:new 0 0 41 44;" xml:space="preserve">
<style type="text/css">
	.st0{fill:#FFFFFF;}
</style>
<path id="Monogram" class="st0" d="M28.7,24.8l-1.6-5.6c0.7-0.9,1.7-1.3,2.8-1.3l1.7,5.9c0.7,2.4,1.9,3.2,3.1,3.2
	c0.5,0,1-0.1,1.6-0.3c0,0.8-0.3,2-1.1,2.4c0.3,0.5,0.5,1.3,0.5,1.9c0,0.9-0.4,1.8-1.3,2.4C33.5,30.1,30.4,30.8,28.7,24.8z
	 M13.3,19.3l-1.6,5.6c-1.7,6-4.8,5.3-5.6,8.7c-0.9-0.6-1.3-1.5-1.3-2.4c0-0.6,0.1-1.3,0.5-1.9c-0.8-0.4-1.1-1.6-1.1-2.4
	c0.6,0.2,1.1,0.3,1.6,0.3c1.2,0,2.4-0.8,3.1-3.2l1.7-5.9C11.6,17.9,12.5,18.4,13.3,19.3z M33.1,37.3c0,0.8-0.3,2-1.1,2.4
	c0.3,0.5,0.5,1.3,0.5,1.9c0,0.9-0.4,1.8-1.3,2.4c-0.7-2.6-2.1-2.3-4-5.4l-5.9-9.6h3.8l3.5,5.8c1.2,1.9,1.7,2.8,3.1,2.8
	C32.1,37.5,32.6,37.4,33.1,37.3z M18.6,18.1l0.5,0.9l-1.9,3.1l-1.8-2.9c-3.2-5.2-8.4-3-12.1,1.4c-0.5-0.5-1.1-1.9-0.8-2.7
	c-1.5-0.3-2.9-1.9-2.5-3.5C0.9,14.8,1.7,15,2.3,15C7.6,15,12.9,8.9,18.6,18.1z M16.5,23.8h1.8l3.4-5.7C27.3,8.8,32.8,15,38,15
	c0.7,0,1.4-0.2,2.3-0.7c0.4,1.7-1,3.3-2.5,3.5c0.3,0.9-0.3,2.2-0.8,2.7c-3.6-4.4-8.9-6.6-12.1-1.4l-2.8,4.6h1.7
	c1.4,0,2.2-0.5,2.5-0.7c0.1,0.5,0.3,1.3-0.2,1.8c1.2,0.2,1.5,2.1,0.7,2.9c-0.5-0.6-1.1-0.9-1.9-0.9h-4.8l-7,11.5
	c-1.9,3.1-3.3,2.8-4,5.4c-0.9-0.6-1.3-1.5-1.3-2.4c0-0.6,0.1-1.3,0.5-1.9c-0.8-0.4-1.1-1.6-1.1-2.4c0.5,0.1,0.9,0.2,1.3,0.2
	c1.4,0,1.9-0.9,3.1-2.8l4.6-7.6h-1c-0.7,0-1.4,0.3-1.9,0.9c-0.8-0.8-0.5-2.7,0.7-2.9c-0.5-0.5-0.3-1.3-0.2-1.8
	C14.3,23.4,15.1,23.8,16.5,23.8z M20.2,6.4L22.9,0c0.9,0.9,1.3,1.3,2.5,1.3h4.5c2.4,0,4.4,1.7,4.4,4c0,3.5-3.5,3.5-3.6,5.7
	c-0.9-0.5-1.9-1.5-1.1-2.9c-0.8-0.1-1-1-1-1.5C29.5,7,31,6.8,31,5.6c0-0.6-0.5-1.1-1.1-1.1H26l1.9,6.8c-1,0.2-1.9,0.5-2.8,1.1
	l-1.7-6l-3.2,7.5l-3.2-7.5l-1.7,5.8c-0.9-0.5-1.9-0.8-2.9-0.9l1.9-6.8h-3.9C9.8,4.5,9.3,5,9.3,5.6c0,1.2,1.5,1.4,2.5,0.9
	c0,0.5-0.2,1.4-1,1.5c0.7,1.4-0.3,2.4-1.1,2.9C9.6,8.8,6.1,8.8,6.1,5.3c0-2.3,1.9-4,4.4-4h4.5c1.2,0,1.6-0.4,2.5-1.3L20.2,6.4z"/>
</svg>
