<?xml version="1.0" encoding="utf-8"?>
<!-- Generator: Adobe Illustrator 21.0.0, SVG Export Plug-In . SVG Version: 6.00 Build 0)  -->
<svg version="1.1" id="Layer_1" xmlns="http://www.w3.org/2000/svg" xmlns:xlink="http://www.w3.org/1999/xlink" x="0px" y="0px"
	 viewBox="0 0 237 14" style="enable-background:new 0 0 237 14;" xml:space="preserve">
<style type="text/css">
	.st0{filter:url(#Adobe_OpacityMaskFilter);}
	.st1{fill:#FFFFFF;}
	.st2{mask:url(#mask-2);fill:#131413;}
	.st3{fill:#131413;}
	.st4{filter:url(#Adobe_OpacityMaskFilter_1_);}
	.st5{mask:url(#mask-4);fill:#131413;}
	.st6{filter:url(#Adobe_OpacityMaskFilter_2_);}
	.st7{mask:url(#mask-6);fill:#131413;}
	.st8{filter:url(#Adobe_OpacityMaskFilter_3_);}
	.st9{mask:url(#mask-8);fill:#131413;}
</style>
<g id="Symbols">
	<g id="Group-3" transform="translate(0.000000, 0.190436)">
		<g id="Clip-2">
		</g>
		<defs>
			<filter id="Adobe_OpacityMaskFilter" filterUnits="userSpaceOnUse" x="0" y="0.2" width="10.6" height="13">
				<feColorMatrix  type="matrix" values="1 0 0 0 0  0 1 0 0 0  0 0 1 0 0  0 0 0 1 0"/>
			</filter>
		</defs>
		<mask maskUnits="userSpaceOnUse" x="0" y="0.2" width="10.6" height="13" id="mask-2">
			<g class="st0">
				<polygon id="path-1" class="st1" points="0,0.2 0,13.2 10.6,13.2 10.6,0.2 				"/>
			</g>
		</mask>
		<path id="Fill-1" class="st2" d="M7.7,13.2H0v-0.1l2.3-1C2.4,10.8,2.4,9,2.4,6.7c0-2.3-0.1-4.1-0.2-5.5L0,0.3V0.2h10.6v3.7h-0.2
			c-0.2-2-1-3.2-3.4-3.2H4v5.9h2.2l1.2-2.9h0.1v6.4H7.5L6.3,7.2H4c0,2.1,0.1,3.8,0.2,5L7.7,13.2L7.7,13.2z"/>
	</g>
	<path id="Fill-4" class="st3" d="M21,13.4h-7.7v-0.1l2.3-1c0.1-1.3,0.2-3.1,0.2-5.5c0-2.3-0.1-4.1-0.2-5.5l-2.3-1V0.4h6.8
		c2.8,0,4.6,1.1,4.6,3.2c0,2.2-1.9,3.4-4.6,3.4h-0.7l5.1,5.1c1,1,1.9,1.3,2.4,1.3v0.1h-3.5l-6.2-6.7c0,2.4,0.1,4.3,0.2,5.6L21,13.4
		L21,13.4z M17.3,0.9v5.5h2.8c1.8,0,2.9-1.2,2.9-2.9c0-1.5-1.1-2.6-2.9-2.6H17.3z"/>
	<path id="Fill-6" class="st3" d="M33.6,13.4h-5.7v-0.1l1.8-1l4.5-10L34,2c-0.5-1-1.2-1.6-1.9-1.6V0.4h2.7v0l3.4,6.8
		c0.9,1.7,2,3.7,2.9,5.2l1.7,1v0.1h-5.9v-0.1l2.4-0.9c-0.4-1-1-2.1-1.5-3.1h-5.8l-1.2,3.1L33.6,13.4L33.6,13.4z M34.4,2.7l-2,5.5
		h4.8C37.1,8.1,37,8,37,7.9L34.4,2.7z"/>
	<path id="Fill-8" class="st3" d="M57.3,13.7L47.7,2.9v4c0,2.3,0.1,4.1,0.2,5.5l2.3,1v0.1h-5.4v-0.1l2.2-0.9
		c0.1-1.3,0.2-3.1,0.2-5.5V2.3c-1.1-1.2-1.9-1.8-2.7-1.8V0.4h3.1v0l9.4,10.7V6.9c0-2.3-0.1-4.1-0.2-5.5l-2.3-1V0.4h5.4v0.1l-2.2,0.9
		c-0.1,1.3-0.2,3.1-0.2,5.5v6.9H57.3z"/>
	<g id="Group-12" transform="translate(62.102564, 0.010949)">
		<g id="Clip-11">
		</g>
		<defs>
			<filter id="Adobe_OpacityMaskFilter_1_" filterUnits="userSpaceOnUse" x="0" y="0.2" width="11.7" height="13.4">
				<feColorMatrix  type="matrix" values="1 0 0 0 0  0 1 0 0 0  0 0 1 0 0  0 0 0 1 0"/>
			</filter>
		</defs>
		<mask maskUnits="userSpaceOnUse" x="0" y="0.2" width="11.7" height="13.4" id="mask-4">
			<g class="st4">
				<polygon id="path-3" class="st1" points="0,0.2 11.7,0.2 11.7,13.6 0,13.6 				"/>
			</g>
		</mask>
		<path id="Fill-10" class="st5" d="M11.6,8.3l0.1,0c-0.5,3.1-2.5,5.2-5.7,5.2c-3.4,0-6-2.7-6-6.8c0-4,2.5-6.6,6.1-6.6
			c2,0,3.5,0.8,4.2,1.6v4h-0.1c0-2.8-2-4.1-4.4-4.1c-2.9,0-5.1,1.9-5.1,5.1c0,3.1,2.3,5.2,5.4,5.2C9.3,11.9,11,10.6,11.6,8.3"/>
	</g>
	<path id="Fill-13" class="st3" d="M76.3,13.3l2.3-1c0.1-1.3,0.2-3.1,0.2-5.5c0-2.3-0.1-4.1-0.2-5.5l-2.3-1V0.4h6.4v0.1l-2.2,0.9
		c-0.1,1.3-0.2,3.1-0.2,5.5c0,2.3,0.1,4.2,0.2,5.5l2.2,0.9v0.1L76.3,13.3L76.3,13.3z"/>
	<g id="Group-17" transform="translate(85.974359, 0.010949)">
		<g id="Clip-16">
		</g>
		<defs>
			<filter id="Adobe_OpacityMaskFilter_2_" filterUnits="userSpaceOnUse" x="0.2" y="0.2" width="9.3" height="13.4">
				<feColorMatrix  type="matrix" values="1 0 0 0 0  0 1 0 0 0  0 0 1 0 0  0 0 0 1 0"/>
			</filter>
		</defs>
		<mask maskUnits="userSpaceOnUse" x="0.2" y="0.2" width="9.3" height="13.4" id="mask-6">
			<g class="st6">
				<polygon id="path-5" class="st1" points="0.2,0.2 9.4,0.2 9.4,13.5 0.2,13.5 				"/>
			</g>
		</mask>
		<path id="Fill-15" class="st7" d="M0.2,12V8.3h0.1c0,2.6,2,3.8,4.4,3.8c2.4,0,4.1-0.8,4.1-2.3c0-4-8.5,0.2-8.5-5.9
			c0-2.3,2-3.8,4.2-3.8c1.9,0,3.3,0.7,4,1.4v3.7H8.3c0-2.8-2.2-3.6-4-3.6c-1.8,0-3.4,0.9-3.4,2.2c0,3.9,8.5,0,8.5,5.7
			c0,2.6-2,4-4.8,4C2.5,13.5,0.9,12.8,0.2,12"/>
	</g>
	<g id="Group-20" transform="translate(98.897436, 0.010949)">
		<g id="Clip-19">
		</g>
		<defs>
			<filter id="Adobe_OpacityMaskFilter_3_" filterUnits="userSpaceOnUse" x="0" y="0.2" width="11.7" height="13.4">
				<feColorMatrix  type="matrix" values="1 0 0 0 0  0 1 0 0 0  0 0 1 0 0  0 0 0 1 0"/>
			</filter>
		</defs>
		<mask maskUnits="userSpaceOnUse" x="0" y="0.2" width="11.7" height="13.4" id="mask-8">
			<g class="st8">
				<polygon id="path-7" class="st1" points="0,0.2 11.7,0.2 11.7,13.6 0,13.6 				"/>
			</g>
		</mask>
		<path id="Fill-18" class="st9" d="M11.6,8.3l0.1,0c-0.5,3.1-2.5,5.2-5.7,5.2c-3.4,0-6-2.7-6-6.8c0-4,2.5-6.6,6.1-6.6
			c2,0,3.5,0.8,4.2,1.6v4h-0.1c0-2.8-2-4.1-4.4-4.1c-2.9,0-5.1,1.9-5.1,5.1c0,3.1,2.3,5.2,5.4,5.2C9.3,11.9,11,10.6,11.6,8.3"/>
	</g>
	<path id="Fill-21" class="st3" d="M118.1,13.4h-5.7v-0.1l1.8-1l4.5-10L118.5,2c-0.5-1-1.2-1.6-1.9-1.6V0.4h2.7v0l3.4,6.8
		c0.9,1.7,2,3.7,2.9,5.2l1.7,1v0.1h-5.9v-0.1l2.4-0.9c-0.4-1-1-2.1-1.5-3.1h-5.8l-1.2,3.1L118.1,13.4L118.1,13.4z M118.8,2.7l-2,5.5
		h4.8c-0.1-0.1-0.1-0.2-0.2-0.3L118.8,2.7z"/>
	<path id="Fill-23" class="st3" d="M149.8,3.6l-5.1,10.3h-0.1l-5.1-10.4V7c0,2.3,0.1,4.1,0.2,5.5l2.3,1v0.1h-5.4v-0.1l2.2-0.9
		c0.1-1.3,0.2-3.1,0.2-5.5V2.3c-0.8-1.3-1.6-1.8-2.7-1.8V0.5h3.7l5.3,11.4l5.2-11.4h3.6v0.1c-1.1,0-1.8,0.3-2.5,1.3L151.4,7
		c0,2.3,0.1,4.2,0.2,5.5l2.2,0.9v0.1h-6.4v-0.1l2.3-1c0.1-1.3,0.2-3.1,0.2-5.5V3.6z"/>
	<path id="Fill-25" class="st3" d="M161.1,13.5h-5.7v-0.1l1.8-1l4.5-10l-0.2-0.4c-0.5-1-1.2-1.6-1.9-1.6V0.5h2.7v0l3.4,6.8
		c0.9,1.7,2,3.7,2.9,5.2l1.7,1v0.1h-5.9v-0.1l2.4-0.9c-0.4-1-1-2.1-1.5-3.1h-5.8l-1.2,3.1L161.1,13.5L161.1,13.5z M161.9,2.8l-2,5.5
		h4.8c-0.1-0.1-0.1-0.2-0.2-0.3L161.9,2.8z"/>
	<path id="Fill-27" class="st3" d="M184.5,13.8L174.8,3v4c0,2.3,0.1,4.1,0.2,5.5l2.3,1v0.1h-5.4v-0.1l2.2-0.9
		c0.1-1.3,0.2-3.1,0.2-5.5V2.4c-1.1-1.2-1.9-1.8-2.7-1.8V0.5h3.1v0l9.4,10.7V7c0-2.3-0.1-4.1-0.2-5.5l-2.3-1V0.5h5.4v0.1l-2.2,0.9
		c-0.1,1.3-0.2,3.1-0.2,5.5v6.9H184.5z"/>
	<path id="Fill-29" class="st3" d="M200.9,8.4l0.1,0c-0.5,3.1-2.5,5.2-5.7,5.2c-3.4,0-6-2.7-6-6.8c0-4,2.5-6.6,6.1-6.6
		c2,0,3.5,0.8,4.2,1.6v4.1h-0.1c0-2.8-2-4.1-4.4-4.1c-2.9,0-5.1,1.9-5.1,5.1c0,3.1,2.3,5.2,5.4,5.2C198.5,12,200.3,10.7,200.9,8.4"
		/>
	<path id="Fill-31" class="st3" d="M203.4,13.4l2.3-1c0.1-1.3,0.2-3.1,0.2-5.5c0-2.3-0.1-4.1-0.2-5.5l-2.3-1V0.5h6.4v0.1l-2.2,0.9
		c-0.1,1.3-0.2,3.1-0.2,5.5c0,2.3,0.1,4.2,0.2,5.5l2.2,0.9v0.1L203.4,13.4L203.4,13.4z"/>
	<path id="Fill-33" class="st3" d="M224.8,13.8L215.1,3v4c0,2.3,0.1,4.1,0.2,5.5l2.3,1v0.1h-5.4v-0.1l2.2-0.9
		c0.1-1.3,0.2-3.1,0.2-5.5V2.4c-1.1-1.2-1.9-1.8-2.7-1.8V0.5h3.1v0l9.4,10.7V7c0-2.3-0.1-4.1-0.2-5.5l-2.3-1V0.5h5.4v0.1l-2.2,0.9
		c-0.1,1.3-0.2,3.1-0.2,5.5v6.9H224.8z"/>
	<path id="Fill-35" class="st3" d="M230.1,13.4l2.3-1c0.1-1.3,0.2-3.1,0.2-5.5c0-2.3-0.1-4.1-0.2-5.5l-2.3-1V0.5h6.4v0.1l-2.2,0.9
		c-0.1,1.3-0.2,3.1-0.2,5.5c0,2.3,0.1,4.2,0.2,5.5l2.2,0.9v0.1L230.1,13.4L230.1,13.4z"/>
</g>
</svg>
