<svg xmlns="http://www.w3.org/2000/svg" viewBox="0 0 236.5 13.8"><path d="M7.7,13.4H0v-.1l2.3-1c.1-1.3.1-3.1.1-5.4s-.1-4.1-.2-5.5L0,.5V.4H10.6V4.1h-.2C10.2,2.1,9.4.9,7,.9H4V6.8H6.2L7.4,3.9h.1v6.4h0l-1.2-3H4c0,2.1.1,3.8.2,5l3.5,1.1Z" transform="translate(0 -0.1)" style="fill:#fff"/><path d="M21,13.4H13.3v-.1l2.3-1c.1-1.3.2-3.1.2-5.5s-.1-4.1-.2-5.5L13.3.3V.4h6.8c2.8,0,4.6,1.1,4.6,3.2S22.8,7,20.1,7h-.7l5.1,5.1a3.76,3.76,0,0,0,2.4,1.3v.1H23.4L17.2,6.8c0,2.4.1,4.3.2,5.6l3.6,1ZM17.3.9V6.4h2.8A2.73,2.73,0,0,0,23,3.5,2.61,2.61,0,0,0,20.1.9Z" transform="translate(0 -0.1)" style="fill:#fff"/><path d="M33.6,13.4H27.9v-.1l1.8-1,4.5-10L34,2C33.5,1,32.8.4,32.1.4h2.7l3.4,6.8c.9,1.7,2,3.7,2.9,5.2l1.7,1v.1H36.9v-.1l2.4-.9c-.4-1-1-2.1-1.5-3.1H32l-1.2,3.1,2.8.9Zm.8-10.7-2,5.5h4.8c-.1-.1-.2-.2-.2-.3Z" transform="translate(0 -0.1)" style="fill:#fff"/><path d="M57.3,13.7,47.7,2.9v4c0,2.3.1,4.1.2,5.5l2.3,1v.1H44.8v-.1l2.2-.9c.1-1.3.2-3.1.2-5.5V2.3C46.1,1.1,45.3.5,44.5.5V.4h3.1L57,11.1V6.9c0-2.3-.1-4.1-.2-5.5L54.5.4h5.4V.5l-2.2.9c-.1,1.3-.2,3.1-.2,5.5v6.9h-.2Z" transform="translate(0 -0.1)" style="fill:#fff"/><path d="M73.7,8.3h.1c-.5,3.1-2.5,5.2-5.7,5.2-3.4,0-6-2.7-6-6.8S64.6.1,68.2.1a5.67,5.67,0,0,1,4.2,1.6v4h-.1c0-2.8-2-4.1-4.4-4.1a4.83,4.83,0,0,0-5.1,5.1,5.1,5.1,0,0,0,5.4,5.2c3.2,0,4.9-1.3,5.5-3.6" transform="translate(0 -0.1)" style="fill:#fff"/><path d="M76.3,13.3l2.3-1c.1-1.3.2-3.1.2-5.5s-.1-4.1-.2-5.5L76.3.3V.4h6.4V.5l-2.2.9c-.1,1.3-.2,3.1-.2,5.5s.1,4.2.2,5.5l2.2.9v.1l-6.4-.1Z" transform="translate(0 -0.1)" style="fill:#fff"/><path d="M86.1,12V8.3h.1c0,2.6,2,3.8,4.4,3.8s4.1-.8,4.1-2.3c0-4-8.5.2-8.5-5.9A4,4,0,0,1,90.4.1a5.73,5.73,0,0,1,4,1.4V5.2h-.1c0-2.8-2.2-3.6-4-3.6s-3.4.9-3.4,2.2c0,3.9,8.5,0,8.5,5.7,0,2.6-2,4-4.8,4A6,6,0,0,1,86.1,12" transform="translate(0 -0.1)" style="fill:#fff"/><path d="M110.5,8.3h.1c-.5,3.1-2.5,5.2-5.7,5.2-3.4,0-6-2.7-6-6.8S101.4.1,105,.1a5.67,5.67,0,0,1,4.2,1.6v4h-.1c0-2.8-2-4.1-4.4-4.1a4.83,4.83,0,0,0-5.1,5.1,5.1,5.1,0,0,0,5.4,5.2c3.2,0,4.9-1.3,5.5-3.6" transform="translate(0 -0.1)" style="fill:#fff"/><path d="M118.1,13.4h-5.7v-.1l1.8-1,4.5-10-.2-.3C118,1,117.3.4,116.6.4h2.7l3.4,6.8c.9,1.7,2,3.7,2.9,5.2l1.7,1v.1h-5.9v-.1l2.4-.9c-.4-1-1-2.1-1.5-3.1h-5.8l-1.2,3.1,2.8.9Zm.7-10.7-2,5.5h4.8c-.1-.1-.1-.2-.2-.3Z" transform="translate(0 -0.1)" style="fill:#fff"/><path d="M149.8,3.6l-5.1,10.3h-.1L139.5,3.5V7c0,2.3.1,4.1.2,5.5l2.3,1v.1h-5.4v-.1l2.2-.9c.1-1.3.2-3.1.2-5.5V2.3A3,3,0,0,0,136.3.5H140l5.3,11.4L150.5.5h3.6V.6a2.67,2.67,0,0,0-2.5,1.3L151.4,7c0,2.3.1,4.2.2,5.5l2.2.9v.1h-6.4v-.1l2.3-1c.1-1.3.2-3.1.2-5.5V3.6Z" transform="translate(0 -0.1)" style="fill:#fff"/><path d="M161.1,13.5h-5.7v-.1l1.8-1,4.5-10-.2-.4C161,1,160.3.4,159.6.4V.5h2.7l3.4,6.8c.9,1.7,2,3.7,2.9,5.2l1.7,1v.1h-5.9v-.1l2.4-.9c-.4-1-1-2.1-1.5-3.1h-5.8l-1.2,3.1,2.8.9Zm.8-10.7-2,5.5h4.8c-.1-.1-.1-.2-.2-.3Z" transform="translate(0 -0.1)" style="fill:#fff"/><path d="M184.5,13.8,174.8,3V7c0,2.3.1,4.1.2,5.5l2.3,1v.1h-5.4v-.1l2.2-.9c.1-1.3.2-3.1.2-5.5V2.4c-1.1-1.2-1.9-1.8-2.7-1.8V.5h3.1l9.4,10.7V7c0-2.3-.1-4.1-.2-5.5l-2.3-1H187V.6l-2.2.9c-.1,1.3-.2,3.1-.2,5.5v6.9h-.1Z" transform="translate(0 -0.1)" style="fill:#fff"/><path d="M200.9,8.4h.1c-.5,3.1-2.5,5.2-5.7,5.2-3.4,0-6-2.7-6-6.8S191.8.2,195.4.2a5.67,5.67,0,0,1,4.2,1.6V5.9h-.1c0-2.8-2-4.1-4.4-4.1A4.83,4.83,0,0,0,190,6.9a5.1,5.1,0,0,0,5.4,5.2c3.1-.1,4.9-1.4,5.5-3.7" transform="translate(0 -0.1)" style="fill:#fff"/><path d="M203.4,13.4l2.3-1c.1-1.3.2-3.1.2-5.5s-.1-4.1-.2-5.5l-2.3-1V.5h6.4V.6l-2.2.9c-.1,1.3-.2,3.1-.2,5.5s.1,4.2.2,5.5l2.2.9v.1l-6.4-.1Z" transform="translate(0 -0.1)" style="fill:#fff"/><path d="M224.8,13.8,215.1,3V7c0,2.3.1,4.1.2,5.5l2.3,1v.1h-5.4v-.1l2.2-.9c.1-1.3.2-3.1.2-5.5V2.4c-1.1-1.2-1.9-1.8-2.7-1.8V.5H215l9.4,10.7V7c0-2.3-.1-4.1-.2-5.5l-2.3-1h5.4V.6l-2.2.9c-.1,1.3-.2,3.1-.2,5.5v6.9h-.1Z" transform="translate(0 -0.1)" style="fill:#fff"/><path d="M230.1,13.4l2.3-1c.1-1.3.2-3.1.2-5.5s-.1-4.1-.2-5.5l-2.3-1V.5h6.4V.6l-2.2.9c-.1,1.3-.2,3.1-.2,5.5s.1,4.2.2,5.5l2.2.9v.1l-6.4-.1Z" transform="translate(0 -0.1)" style="fill:#fff"/></svg>