<svg id="Layer_1" data-name="Layer 1" xmlns="http://www.w3.org/2000/svg" viewBox="0 0 40.44 44"><title>logo-mini-black</title><path id="Monogram" d="M28.7,24.8l-1.6-5.6a3.41,3.41,0,0,1,2.8-1.3l1.7,5.9c.7,2.4,1.9,3.2,3.1,3.2a5,5,0,0,0,1.6-.3,2.77,2.77,0,0,1-1.1,2.4,4.14,4.14,0,0,1,.5,1.9,2.83,2.83,0,0,1-1.3,2.4C33.5,30.1,30.4,30.8,28.7,24.8ZM13.3,19.3l-1.6,5.6c-1.7,6-4.8,5.3-5.6,8.7a2.83,2.83,0,0,1-1.3-2.4,3.39,3.39,0,0,1,.5-1.9,2.77,2.77,0,0,1-1.1-2.4,5,5,0,0,0,1.6.3c1.2,0,2.4-.8,3.1-3.2l1.7-5.9A2.87,2.87,0,0,1,13.3,19.3Zm19.8,18A2.77,2.77,0,0,1,32,39.7a4.14,4.14,0,0,1,.5,1.9A2.83,2.83,0,0,1,31.2,44c-.7-2.6-2.1-2.3-4-5.4L21.3,29h3.8l3.5,5.8c1.2,1.9,1.7,2.8,3.1,2.8C32.1,37.5,32.6,37.4,33.1,37.3ZM18.6,18.1l.5.9-1.9,3.1-1.8-2.9C12.2,14,7,16.2,3.3,20.6a3.26,3.26,0,0,1-.8-2.7A3.11,3.11,0,0,1,0,14.4a6,6,0,0,0,2.3.6C7.6,15,12.9,8.9,18.6,18.1Zm-2.1,5.7h1.8l3.4-5.7C27.3,8.8,32.8,15,38,15a4.62,4.62,0,0,0,2.3-.7,3,3,0,0,1-2.5,3.5,3.16,3.16,0,0,1-.8,2.7c-3.6-4.4-8.9-6.6-12.1-1.4l-2.8,4.6h1.7a4.31,4.31,0,0,0,2.5-.7c.1.5.3,1.3-.2,1.8,1.2.2,1.5,2.1.7,2.9a2.32,2.32,0,0,0-1.9-.9H20.1l-7,11.5c-1.9,3.1-3.3,2.8-4,5.4a2.83,2.83,0,0,1-1.3-2.4,3.39,3.39,0,0,1,.5-1.9A2.77,2.77,0,0,1,7.2,37a6.88,6.88,0,0,0,1.3.2c1.4,0,1.9-.9,3.1-2.8l4.6-7.6h-1a2.46,2.46,0,0,0-1.9.9c-.8-.8-.5-2.7.7-2.9-.5-.5-.3-1.3-.2-1.8A4.1,4.1,0,0,0,16.5,23.8ZM20.2,6.4,22.9,0c.9.9,1.3,1.3,2.5,1.3h4.5a4.17,4.17,0,0,1,4.4,4c0,3.5-3.5,3.5-3.6,5.7-.9-.5-1.9-1.5-1.1-2.9-.8-.1-1-1-1-1.5.9.4,2.4.2,2.4-1a1.11,1.11,0,0,0-1.1-1.1H26l1.9,6.8a7.45,7.45,0,0,0-2.8,1.1l-1.7-6-3.2,7.5L17,6.4l-1.7,5.8a7.54,7.54,0,0,0-2.9-.9l1.9-6.8H10.4A1.11,1.11,0,0,0,9.3,5.6c0,1.2,1.5,1.4,2.5.9,0,.5-.2,1.4-1,1.5a2.18,2.18,0,0,1-1.1,2.9C9.6,8.8,6.1,8.8,6.1,5.3a4.11,4.11,0,0,1,4.4-4H15c1.2,0,1.6-.4,2.5-1.3Z" transform="translate(0.07)"/></svg>