<?xml version="1.0" encoding="UTF-8"?>
<svg width="41px" height="44px" viewBox="0 0 41 44" version="1.1" xmlns="http://www.w3.org/2000/svg" xmlns:xlink="http://www.w3.org/1999/xlink">
    <!-- Generator: Sketch 50.2 (55047) - http://www.bohemiancoding.com/sketch -->
    <title>Mobile / Monogram</title>
    <desc>Created with Sketch.</desc>
    <defs></defs>
    <g id="Symbols" stroke="none" stroke-width="1" fill="none" fill-rule="evenodd">
        <g id="Mobile-/-nav" transform="translate(-167.000000, -19.000000)" fill="#FFFFFF">
            <g id="Mobile-/-Monogram" transform="translate(167.000000, 19.000000)">
                <path d="M28.6662262,24.8462709 L27.0589203,19.2876712 C27.7956022,18.4170472 28.7331973,17.9482496 29.8717057,18.0152207 L31.5459827,23.9086758 C32.2156935,26.3196347 33.421173,27.1232877 34.6266524,27.1232877 C35.09545,27.1232877 35.6312186,27.0563166 36.2339583,26.8554033 C36.2339583,27.6590563 35.8991029,28.8645358 35.09545,29.2663623 C35.4303054,29.8021309 35.5642475,30.5388128 35.5642475,31.1415525 C35.5642475,32.0791476 35.162421,32.9497717 34.291797,33.5525114 C33.488144,30.1369863 30.4074743,30.8066971 28.6662262,24.8462709 Z M13.2628777,19.2876712 L11.6555717,24.8462709 C9.91432364,30.8066971 6.83365393,30.1369863 6.03000096,33.5525114 C5.15937691,32.9497717 4.75755043,32.0791476 4.75755043,31.1415525 C4.75755043,30.5388128 4.89149259,29.8021309 5.22634799,29.2663623 C4.42269502,28.8645358 4.08783962,27.6590563 4.08783962,26.8554033 C4.69057935,27.0563166 5.22634799,27.1232877 5.69514556,27.1232877 C6.90062501,27.1232877 8.10610446,26.3196347 8.77581527,23.9086758 L10.4500923,18.0152207 C11.5886007,17.9482496 12.5261958,18.4170472 13.2628777,19.2876712 Z M33.0863175,37.3028919 C33.0863175,38.1065449 32.7514621,39.3120244 31.9478092,39.7138508 C32.2826646,40.2496195 32.4166067,40.9863014 32.4166067,41.5890411 C32.4166067,42.5266362 32.0147803,43.3972603 31.1441562,44 C30.4744454,41.3881279 29.0680527,41.6560122 27.1928625,38.5753425 L21.2994074,28.9315068 L25.1167589,28.9315068 L28.5992551,34.6910198 C29.8047346,36.6331811 30.3405032,37.5038052 31.7468959,37.5038052 C32.1487224,37.5038052 32.5505489,37.4368341 33.0863175,37.3028919 Z M18.6205641,18.1491629 L19.1563328,19.0197869 L17.2141714,22.1674277 L15.4059523,19.2207002 C12.1913404,13.9969559 6.96759609,16.2070015 3.35115773,20.6270928 C2.81538909,20.0913242 2.27962044,18.7519026 2.54750476,17.8812785 C1.07414099,17.6133942 -0.332251705,16.0060883 0.069574779,14.3318113 C0.940198828,14.8006088 1.67688072,15.0015221 2.34659152,15.0015221 C7.57033581,15.0015221 12.9280223,8.90715373 18.6205641,18.1491629 Z M16.4774895,23.8417047 L18.2857087,23.8417047 L21.7012338,18.1491629 C27.3268046,8.84018265 32.7514621,15.0015221 37.9752064,15.0015221 C38.6449172,15.0015221 39.3815991,14.8006088 40.2522232,14.3318113 C40.6540497,16.0060883 39.247657,17.6133942 37.7742932,17.8812785 C38.0421775,18.7519026 37.5064089,20.0913242 36.9706402,20.6270928 C33.3542019,16.2070015 28.0634865,13.9969559 24.9158457,19.2207002 L22.1030603,23.8417047 L23.8443084,23.8417047 C25.2507011,23.8417047 26.0543541,23.3729072 26.3892095,23.1719939 C26.5231516,23.7077626 26.6570938,24.5114155 26.1882962,24.9802131 C27.3937757,25.1811263 27.66166,27.1232877 26.858007,27.9269406 C26.3892095,27.3242009 25.7194987,27.0563166 24.9828168,27.0563166 L20.160899,27.0563166 L13.1289355,38.5753425 C11.2537453,41.6560122 9.84735256,41.3881279 9.17764175,44 C8.3070177,43.3972603 7.90519122,42.5266362 7.90519122,41.5890411 C7.90519122,40.9863014 8.03913338,40.2496195 8.37398878,39.7138508 C7.57033581,39.3120244 7.23548041,38.1065449 7.23548041,37.3028919 C7.77124906,37.4368341 8.17307554,37.5038052 8.57490202,37.5038052 C9.98129472,37.5038052 10.5170634,36.6331811 11.7225428,34.6910198 L16.3435474,27.0563166 L15.3389812,27.0563166 C14.6022993,27.0563166 13.9325885,27.3242009 13.4637909,27.9269406 C12.6601379,27.1232877 12.9280223,25.1811263 14.1335017,24.9802131 C13.6647042,24.5114155 13.7986463,23.7077626 13.9325885,23.1719939 C14.2674439,23.3729072 15.0710968,23.8417047 16.4774895,23.8417047 Z M20.160899,6.36225266 L22.9067133,0 C23.7773373,0.870624049 24.1791638,1.27245053 25.3846433,1.27245053 L29.8717057,1.27245053 C32.2826646,1.27245053 34.2248259,2.94672755 34.2248259,5.29071537 C34.2248259,8.84018265 30.7423297,8.84018265 30.6083876,10.9832572 C29.7377635,10.5144597 28.7331973,9.50989346 29.4698792,8.10350076 C28.6662262,7.9695586 28.465313,7.09893455 28.465313,6.56316591 C29.4698792,7.03196347 31.010214,6.83105023 31.010214,5.62557078 C31.010214,5.02283105 30.4744454,4.4870624 29.8717057,4.4870624 L25.987383,4.4870624 L27.9295443,11.3181126 C26.9249781,11.5190259 25.987383,11.8538813 25.1167589,12.3896499 L23.3755109,6.42922374 L20.160899,13.9299848 L16.9462871,6.42922374 L15.2720101,12.1887367 C14.401386,11.7199391 13.3968198,11.3850837 12.3922536,11.3181126 L14.334415,4.4870624 L10.4500923,4.4870624 C9.84735256,4.4870624 9.31158391,5.02283105 9.31158391,5.62557078 C9.31158391,6.83105023 10.8519188,7.03196347 11.856485,6.56316591 C11.856485,7.09893455 11.6555717,7.9695586 10.8519188,8.10350076 C11.5886007,9.50989346 10.5840344,10.5144597 9.7134104,10.9832572 C9.57946823,8.84018265 6.09697204,8.84018265 6.09697204,5.29071537 C6.09697204,2.94672755 8.03913338,1.27245053 10.4500923,1.27245053 L14.9371547,1.27245053 C16.1426341,1.27245053 16.5444606,0.870624049 17.4150847,0 L20.160899,6.36225266 Z" id="Monogram"></path>
            </g>
        </g>
    </g>
</svg>